<?xml version="1.0" encoding="UTF-8"?>
<svg xmlns="http://www.w3.org/2000/svg" viewBox="0 0 760 230" width="100%" style="max-width:760px;display:block;background:#faf8f4;border-radius:12px" role="img" aria-label="Front view from the foyer of the slatted white-oak screen">
<g font-family="-apple-system,Helvetica,Arial,sans-serif" font-size="12" fill="#2b2824">
<text x="20" y="26" font-weight="600" font-size="14">Warm-oak alternative, seen from the foyer (front elevation, schematic)</text>
<rect x="40" y="186" width="560" height="10" fill="#e7ddcc"/>
<rect x="40" y="70" width="560" height="12" rx="3" fill="#c8a67a"/>
<rect x="40" y="172" width="560" height="14" fill="#c8a67a"/>
<rect x="46" y="82" width="7" height="90" fill="#d9bb8f"/><rect x="60" y="82" width="7" height="90" fill="#d9bb8f"/><rect x="74" y="82" width="7" height="90" fill="#d9bb8f"/><rect x="88" y="82" width="7" height="90" fill="#d9bb8f"/><rect x="102" y="82" width="7" height="90" fill="#d9bb8f"/><rect x="116" y="82" width="7" height="90" fill="#d9bb8f"/><rect x="130" y="82" width="7" height="90" fill="#d9bb8f"/><rect x="144" y="82" width="7" height="90" fill="#d9bb8f"/><rect x="158" y="82" width="7" height="90" fill="#d9bb8f"/><rect x="172" y="82" width="7" height="90" fill="#d9bb8f"/><rect x="186" y="82" width="7" height="90" fill="#d9bb8f"/><rect x="200" y="82" width="7" height="90" fill="#d9bb8f"/><rect x="214" y="82" width="7" height="90" fill="#d9bb8f"/><rect x="228" y="82" width="7" height="90" fill="#d9bb8f"/><rect x="242" y="82" width="7" height="90" fill="#d9bb8f"/><rect x="256" y="82" width="7" height="90" fill="#d9bb8f"/><rect x="270" y="82" width="7" height="90" fill="#d9bb8f"/><rect x="284" y="82" width="7" height="90" fill="#d9bb8f"/><rect x="298" y="82" width="7" height="90" fill="#d9bb8f"/><rect x="312" y="82" width="7" height="90" fill="#d9bb8f"/><rect x="326" y="82" width="7" height="90" fill="#d9bb8f"/><rect x="340" y="82" width="7" height="90" fill="#d9bb8f"/><rect x="354" y="82" width="7" height="90" fill="#d9bb8f"/><rect x="368" y="82" width="7" height="90" fill="#d9bb8f"/><rect x="382" y="82" width="7" height="90" fill="#d9bb8f"/><rect x="396" y="82" width="7" height="90" fill="#d9bb8f"/><rect x="410" y="82" width="7" height="90" fill="#d9bb8f"/><rect x="424" y="82" width="7" height="90" fill="#d9bb8f"/><rect x="438" y="82" width="7" height="90" fill="#d9bb8f"/><rect x="452" y="82" width="7" height="90" fill="#d9bb8f"/><rect x="466" y="82" width="7" height="90" fill="#d9bb8f"/><rect x="480" y="82" width="7" height="90" fill="#d9bb8f"/><rect x="494" y="82" width="7" height="90" fill="#d9bb8f"/><rect x="508" y="82" width="7" height="90" fill="#d9bb8f"/><rect x="522" y="82" width="7" height="90" fill="#d9bb8f"/><rect x="536" y="82" width="7" height="90" fill="#d9bb8f"/><rect x="550" y="82" width="7" height="90" fill="#d9bb8f"/><rect x="564" y="82" width="7" height="90" fill="#d9bb8f"/><rect x="578" y="82" width="7" height="90" fill="#d9bb8f"/><rect x="592" y="82" width="7" height="90" fill="#d9bb8f"/>
<rect x="600" y="70" width="10" height="126" fill="#c8a67a"/>
<rect x="610" y="186" width="130" height="10" fill="#e7ddcc"/>
<text x="620" y="120" fill="#9b6b3d">1.5 m way in</text><text x="620" y="136" fill="#9b6b3d">(open)</text>
<text x="40" y="216" fill="#7a7166">~4.4 m of vertical white-oak slats (about 3 × 5 cm at 8 cm centres) between an oak base rail and cap; cap ~86 cm above the foyer.</text>
</g></svg>
