<svg xmlns="http://www.w3.org/2000/svg" viewBox="0 0 1260 790" role="img" aria-label="Carl Hansen Embrace, enlarged five-module L with hosting table and circulation allowances"><title>Carl Hansen Embrace, enlarged five-module L furniture layout study</title><rect x="135" y="80" width="1070" height="620" rx="0" fill="#f0e7d9" stroke="#99866b" stroke-width="2" /><rect x="135" y="80" width="1070" height="120" rx="0" fill="#e6ecdf" stroke="#e6ecdf" stroke-width="2" /><text x="670" y="123" text-anchor="middle" font-size="22" fill="#5d5345" font-family="Arial,sans-serif">NORTH · courtyard-door access</text><text x="670" y="157" text-anchor="middle" font-size="17" fill="#5d5345" font-family="Arial,sans-serif">120 cm planning route; verify door folding space</text><rect x="135" y="80" width="120" height="620" rx="0" fill="#ece6d9" stroke="#ddd1be" stroke-width="2" stroke-dasharray="7 6"/><text x="195" y="305" text-anchor="middle" font-size="17" fill="#5d5345" font-family="Arial,sans-serif">Bar</text><text x="195" y="332" text-anchor="middle" font-size="17" fill="#5d5345" font-family="Arial,sans-serif">access</text><text x="195" y="359" text-anchor="middle" font-size="17" fill="#5d5345" font-family="Arial,sans-serif">buffer</text><text x="195" y="390" text-anchor="middle" font-size="17" fill="#5d5345" font-family="Arial,sans-serif">120 cm</text><text x="83" y="520" text-anchor="middle" font-size="17" fill="#5d5345" font-family="Arial,sans-serif">Existing</text><text x="83" y="545" text-anchor="middle" font-size="17" fill="#5d5345" font-family="Arial,sans-serif">wet bar</text><text x="83" y="570" text-anchor="middle" font-size="17" fill="#5d5345" font-family="Arial,sans-serif">4 stools</text><rect x="255.0" y="235.0" width="470" height="290" rx="14" fill="#faf7ee" stroke="#99866b" stroke-width="2" stroke-dasharray="7 6"/><rect x="350.0" y="330.0" width="280" height="100" rx="10" fill="#c4a376" stroke="#99866b" stroke-width="2" /><rect x="386.5" y="265.5" width="57" height="54.5" rx="13" fill="#f9f1e2" stroke="#99866b" stroke-width="2" /><rect x="386.5" y="440.0" width="57" height="54.5" rx="13" fill="#f9f1e2" stroke="#99866b" stroke-width="2" /><rect x="461.5" y="265.5" width="57" height="54.5" rx="13" fill="#f9f1e2" stroke="#99866b" stroke-width="2" /><rect x="461.5" y="440.0" width="57" height="54.5" rx="13" fill="#f9f1e2" stroke="#99866b" stroke-width="2" /><rect x="536.5" y="265.5" width="57" height="54.5" rx="13" fill="#f9f1e2" stroke="#99866b" stroke-width="2" /><rect x="536.5" y="440.0" width="57" height="54.5" rx="13" fill="#f9f1e2" stroke="#99866b" stroke-width="2" /><rect x="285.5" y="351.5" width="54.5" height="57" rx="13" fill="#f9f1e2" stroke="#99866b" stroke-width="2" /><rect x="640.0" y="351.5" width="54.5" height="57" rx="13" fill="#f9f1e2" stroke="#99866b" stroke-width="2" /><text x="490" y="378" text-anchor="middle" font-size="17" fill="#5d5345" font-family="Arial,sans-serif">Radii</text><text x="490" y="405" text-anchor="middle" font-size="15" fill="#5d5345" font-family="Arial,sans-serif">280 × 100 cm · 8 chairs</text><rect x="720" y="225" width="457" height="366" rx="3" fill="#ddd4bf" stroke="#d5c9b1" stroke-width="2" /><rect x="745" y="444" width="385" height="105" rx="18" fill="#fffdf6" stroke="#99866b" stroke-width="2" /><rect x="1025" y="225" width="105" height="324" rx="18" fill="#fffdf6" stroke="#99866b" stroke-width="2" /><rect x="757" y="517" width="361" height="23" rx="9" fill="#ede4d4" stroke="#99866b" stroke-width="2" /><rect x="1098" y="237" width="23" height="300" rx="9" fill="#ede4d4" stroke="#99866b" stroke-width="2" /><rect x="854.3" y="315.8" width="125.7" height="83.2" rx="28" fill="#b18353" stroke="#99866b" stroke-width="2" /><text x="937.5" y="503.5" text-anchor="middle" font-size="20" fill="#5d5345" font-family="Arial,sans-serif">EMBRACE</text><text x="937.5" y="581" text-anchor="middle" font-size="17" fill="#5d5345" font-family="Arial,sans-serif">385 × 324 cm</text><text x="945" y="650" text-anchor="middle" font-size="18" fill="#5d5345" font-family="Arial,sans-serif">Stair approach / south route</text><path d="M295 628 L1180 628" fill="none" stroke="#8a9975" stroke-width="2" stroke-dasharray="9 6"/><text x="670" y="686" text-anchor="middle" font-size="14" fill="#5d5345" font-family="Arial,sans-serif">Overall footprints to scale. Sofa modules are schematic; doors need a site check.</text><text x="1205" y="731" text-anchor="end" font-size="17" fill="#5d5345" font-family="Arial,sans-serif">Stairs arrive from this end →</text><text x="670" y="767" text-anchor="middle" font-size="20" fill="#5d5345" font-family="Arial,sans-serif">10.7 m study envelope</text><text x="155" y="55" text-anchor="start" font-size="18" fill="#5d5345" font-family="Arial,sans-serif">Plan-based furniture study · 6.2 m depth is approximate</text></svg>